<?xml version="1.0" encoding="UTF-8"?>
<svg version="1.1" xmlns="http://www.w3.org/2000/svg" width="2000" height="505">
<path d="M0 0 C660 0 1320 0 2000 0 C2000 166.65 2000 333.3 2000 505 C1340 505 680 505 0 505 C0 338.35 0 171.7 0 0 Z " fill="#6B7280" transform="translate(0,0)"/>
<path d="M0 0 C660 0 1320 0 2000 0 C2000 166.65 2000 333.3 2000 505 C1340 505 680 505 0 505 C0 338.35 0 171.7 0 0 Z M56 55 C56 185.35 56 315.7 56 450 C679.04 450 1302.08 450 1944 450 C1944 319.65 1944 189.3 1944 55 C1320.96 55 697.92 55 56 55 Z " fill="#FDFDFD" transform="translate(0,0)"/>
<path d="M0 0 C660 0 1320 0 2000 0 C2000 166.65 2000 333.3 2000 505 C1340 505 680 505 0 505 C0 338.35 0 171.7 0 0 Z M19 18 C19 172.77 19 327.54 19 487 C666.46 487 1313.92 487 1981 487 C1981 332.23 1981 177.46 1981 18 C1333.54 18 686.08 18 19 18 Z " fill="#6B7180" transform="translate(0,0)"/>
<path d="M0 0 C18.38695972 14.19830558 25.80116216 36.45648751 28.73803711 58.7565918 C30.64585207 75.75837612 31.53684632 94.20880019 26.5625 110.75 C26.21058594 111.92046875 25.85867188 113.0909375 25.49609375 114.296875 C21.34069181 126.85908019 15.33301477 137.83931831 6.5625 147.75 C6.02109375 148.38550781 5.4796875 149.02101563 4.921875 149.67578125 C-3.88410968 159.31534215 -18.30923746 166.13537771 -31.40014648 166.85839844 C-50.46638095 167.36889566 -67.37596422 165.55136389 -82.5 152.875 C-90.42409814 145.11661494 -95.24755213 135.92036764 -99.4375 125.75 C-99.8190625 124.82832031 -100.200625 123.90664063 -100.59375 122.95703125 C-109.05162904 100.24250004 -109.77490062 70.98713562 -103.4375 47.75 C-103.17066406 46.66847656 -102.90382812 45.58695313 -102.62890625 44.47265625 C-97.10216008 24.20792029 -85.43525626 6.58597786 -66.99609375 -4 C-62.95273302 -5.97538234 -58.79759566 -7.1867486 -54.4375 -8.25 C-53.85887207 -8.41983398 -53.28024414 -8.58966797 -52.68408203 -8.76464844 C-34.49527013 -12.6941592 -15.54395626 -9.91515998 0 0 Z " fill="#6B7280" transform="translate(248.4375,143.25)"/>
<path d="M0 0 C0.4140625 2.94140625 0.4140625 2.94140625 0.625 6.5625 C0.69976563 7.76003906 0.77453125 8.95757812 0.8515625 10.19140625 C0.90054688 11.11824219 0.94953125 12.04507813 1 13 C1.87140625 12.48050781 2.7428125 11.96101562 3.640625 11.42578125 C20.74508595 1.35267066 38.95349829 -5.37657008 59.125 -1.4375 C74.18865417 3.34939455 83.91992131 11.64525108 91.3046875 25.52734375 C100.67163165 44.71447128 99.66322223 71.11956647 93 91 C92.63777344 92.09054687 92.27554688 93.18109375 91.90234375 94.3046875 C86.35926198 109.07371215 76.21678333 120.09013834 61.9921875 126.75 C45.25729085 133.74107954 27.04786287 134.06757681 10 128 C8.4134083 127.3233393 6.83396476 126.62971268 5.26147461 125.92089844 C4.46059921 125.56106873 3.65972382 125.20123901 2.83457947 124.83050537 C1.92646263 124.41940521 1.92646263 124.41940521 1 124 C0.97441625 131.29165895 0.95703608 138.58330611 0.94506836 145.875 C0.94007336 148.3499393 0.93327509 150.82487569 0.92456055 153.29980469 C0.79385405 172.17507353 0.79385405 172.17507353 2 191 C8.1399567 194.06997835 14.23238872 195.05542371 21 196 C21 198.64 21 201.28 21 204 C-0.78 204 -22.56 204 -45 204 C-45 201.36 -45 198.72 -45 196 C-43.08574219 195.67128906 -43.08574219 195.67128906 -41.1328125 195.3359375 C-39.46327145 195.0170364 -37.79401437 194.69664617 -36.125 194.375 C-35.28324219 194.23449219 -34.44148437 194.09398437 -33.57421875 193.94921875 C-31.24018118 193.48241124 -29.17462768 192.96841581 -27 192 C-22.1889712 184.34722363 -23.76379436 170.28466031 -23.44799805 161.40429688 C-23.40595843 160.23670586 -23.36391882 159.06911484 -23.32060528 157.86614227 C-22.9029338 145.4212393 -22.83602728 132.9820878 -22.83203125 120.53125 C-22.8288028 118.10428856 -22.82543766 115.67732729 -22.82194519 113.25036621 C-22.81602878 108.21866403 -22.81409786 103.18697884 -22.81469727 98.15527344 C-22.81479942 91.76031293 -22.80105797 85.3654621 -22.78392506 78.97052765 C-22.77273343 73.97891756 -22.77078011 68.98733362 -22.77130699 63.99571228 C-22.7701411 61.63898841 -22.76579939 59.28226354 -22.75797462 56.92555237 C-22.71632091 43.10861816 -23.29110719 29.71855289 -25 16 C-30.94 14.35 -36.88 12.7 -43 11 C-43 8.36 -43 5.72 -43 3 C-41.34677734 2.83564453 -41.34677734 2.83564453 -39.66015625 2.66796875 C-30.90885209 1.76309712 -22.279727 0.67123861 -13.66040039 -1.12231445 C-8.75687715 -2.08255013 -4.54758595 -2.27379298 0 0 Z " fill="#FCFCFC" transform="translate(835,190)"/>
<path d="M0 0 C0.97525635 0.31348389 0.97525635 0.31348389 1.97021484 0.63330078 C21.35422637 7.01811583 36.47962506 19.96772521 46 38 C48.49664737 43.17258239 50.35588852 48.50357179 52 54 C52.21027832 54.6909375 52.42055664 55.381875 52.63720703 56.09375 C61.63005169 87.08097088 56.31217595 123.42707904 41.625 151.75 C38.54032546 157.28778857 35.11854707 162.19215635 31 167 C29.98292969 168.23363281 29.98292969 168.23363281 28.9453125 169.4921875 C18.80468036 181.36502727 6.10071532 188.40466823 -8.22827148 194.10253906 C-9.12343979 194.45898499 -10.01860809 194.81543091 -10.94090271 195.18267822 C-11.62040482 195.45239441 -12.29990692 195.7221106 -13 196 C-11.92480606 196.53648666 -10.84961212 197.07297333 -9.74183655 197.62571716 C0.36888627 202.67096214 10.47856404 207.7182956 20.58721066 212.76769924 C25.78474451 215.36385194 30.98264946 217.95925592 36.18139648 220.55297852 C41.19429149 223.05401093 46.20621945 225.55697116 51.21747017 228.06129646 C53.13376799 229.01851837 55.05041889 229.97503375 56.96742058 230.93084526 C59.64318732 232.26512256 62.31771085 233.60185999 64.99194336 234.93920898 C65.7925116 235.33769547 66.59307983 235.73618195 67.41790771 236.14674377 C72.88594784 238.88594784 72.88594784 238.88594784 74 240 C74.04080783 241.99958364 74.04254356 244.00045254 74 246 C62.0859375 251.95703125 62.0859375 251.95703125 59.97949219 252.99853516 C58.20538044 253.89609391 56.46332149 254.85635903 54.7265625 255.82421875 C51.64133449 257.15466808 51.05461529 257.0705277 48 256 C46.01147461 254.88354492 46.01147461 254.88354492 43.90234375 253.48046875 C42.71596313 252.69869263 42.71596313 252.69869263 41.50561523 251.90112305 C40.23439819 251.05287964 40.23439819 251.05287964 38.9375 250.1875 C37.11517065 248.98869007 35.29224055 247.79079292 33.46875 246.59375 C32.54835938 245.98789062 31.62796875 245.38203125 30.6796875 244.7578125 C7.80328677 229.75142718 -15.77984954 215.72736091 -40 203 C-40.67369629 202.62907227 -41.34739258 202.25814453 -42.04150391 201.87597656 C-45.19938014 200.46355324 -48.53244592 200.69768346 -51.9375 200.625 C-78.06274555 199.55937558 -101.45463833 192.18285848 -120 173 C-129.04320574 162.4378183 -134.74037555 148.40926076 -138 135 C-138.26598999 133.91174927 -138.26598999 133.91174927 -138.53735352 132.80151367 C-140.29008685 124.63691208 -140.33830174 116.55211558 -140.31567383 108.2409668 C-140.31252811 105.83400505 -140.33599847 103.4282939 -140.36132812 101.02148438 C-140.46883163 74.83524056 -132.59824031 49.48641078 -116 29 C-115.07960937 27.83404297 -115.07960937 27.83404297 -114.140625 26.64453125 C-99.43652886 8.99353981 -76.56355629 -1.24343301 -54.05712891 -3.75244141 C-36.14652285 -5.20279714 -17.19857763 -5.68562659 0 0 Z M-90.80078125 32.140625 C-110.27187494 57.45650524 -112.92829398 90.62196874 -109.23046875 121.38354492 C-106.40903256 140.66271297 -99.06005145 161.2472243 -83.65625 173.9296875 C-68.46370408 185.13178623 -51.48761399 187.59375983 -33 186 C-18.85116272 183.50980464 -6.94947658 177.29426042 3 167 C3.76054687 166.22269531 4.52109375 165.44539062 5.3046875 164.64453125 C24.49502881 143.22970401 27.32745448 114.48113209 26 87 C23.83779289 62.36151647 17.97608578 38.11863823 -1 21 C-12.88233827 12.29257222 -25.0120778 9.32671166 -39.5625 9.5625 C-40.79935547 9.55541016 -42.03621094 9.54832031 -43.31054688 9.54101562 C-62.80395559 9.67502637 -78.0794499 17.48778261 -90.80078125 32.140625 Z " fill="#FDFDFD" transform="translate(252,124)"/>
<path d="M0 0 C0.90621094 0.25652344 1.81242187 0.51304687 2.74609375 0.77734375 C15.93667969 5.04004351 25.916412 13.67964094 32.3125 25.9375 C42.14263909 46.93339491 40.99493939 70.60565554 33.375 92.125 C27.11016243 108.61582363 16.05771916 119.97680324 0.1171875 127.30078125 C-10.65672566 131.93431733 -21.41189282 132.50597699 -33 132 C-34.13824219 131.95746094 -35.27648438 131.91492188 -36.44921875 131.87109375 C-52.5040439 130.97810348 -65.95128569 125.98699335 -77 114 C-90.19683956 96.38496251 -91.8196785 75.78081099 -89.3125 54.625 C-86.442561 37.64452759 -78.34215749 20.42976327 -64.26171875 9.96484375 C-61.55555594 8.20190781 -58.82287026 6.56826126 -56 5 C-54.89591797 4.38318359 -54.89591797 4.38318359 -53.76953125 3.75390625 C-38.77754688 -4.16255745 -16.13742893 -4.59195132 0 0 Z " fill="#FDFDFD" transform="translate(1410,190)"/>
<path d="M0 0 C8.49873745 1.64929836 17.51977764 0.89813756 26.1328125 0.66796875 C26.56311137 5.96964755 26.99026227 11.27156727 27.41455078 16.57373047 C27.5592019 18.37588277 27.70469954 20.17796734 27.85107422 21.97998047 C28.06182088 24.57632199 28.26948055 27.17289518 28.4765625 29.76953125 C28.54218384 30.56976715 28.60780518 31.37000305 28.67541504 32.19448853 C29.38517361 41.17940845 29.38517361 41.17940845 29.1328125 44.66796875 C26.8203125 46.60546875 26.8203125 46.60546875 24.1328125 47.66796875 C22.6478125 47.17296875 22.6478125 47.17296875 21.1328125 46.66796875 C19.95703125 44.078125 19.95703125 44.078125 18.8203125 40.73046875 C15.1926952 30.83597966 11.12030258 22.00485177 1.26171875 17.296875 C-10.36312414 12.27414607 -23.68563928 10.17369358 -35.9921875 14.29296875 C-43.75547564 17.68058539 -48.47811367 22.20927232 -51.984375 29.96484375 C-54.79539098 38.57202543 -52.75498722 46.73540846 -48.8671875 54.66796875 C-42.72068272 65.01519129 -32.79293116 71.24951318 -22.8046875 77.48046875 C-20.56837132 78.89352032 -18.33269154 80.30757956 -16.09765625 81.72265625 C-15.02435059 82.40038086 -13.95104492 83.07810547 -12.84521484 83.77636719 C-6.77789259 87.63024592 -0.81668951 91.6356071 5.1328125 95.66796875 C6.27974965 96.43128758 7.42688631 97.19430671 8.57421875 97.95703125 C22.35522387 107.18919714 34.94915436 117.66846408 39.1953125 134.35546875 C42.00299246 150.11285629 38.53025965 163.89080215 29.45703125 177.109375 C18.68215851 190.37608126 2.64943956 196.46008722 -13.8671875 198.66796875 C-18.3711431 198.95935474 -22.85475359 199.0022334 -27.3671875 198.98046875 C-28.59896729 198.9748291 -29.83074707 198.96918945 -31.09985352 198.96337891 C-73.12594342 198.40921283 -73.12594342 198.40921283 -82.8671875 188.66796875 C-82.70555871 181.45683793 -81.51986403 174.35426828 -80.32421875 167.2578125 C-79.97495571 164.51445579 -79.77220118 161.9252966 -79.69140625 159.171875 C-79.66626953 158.40447998 -79.64113281 157.63708496 -79.61523438 156.84643555 C-79.575548 155.33659312 -79.55657355 153.82603252 -79.56054688 152.31567383 C-79.50390625 150.22265625 -79.50390625 150.22265625 -78.8671875 146.66796875 C-76.00403823 144.24639972 -74.61820744 143.66796875 -70.8671875 143.66796875 C-70.55265625 144.71855469 -70.238125 145.76914062 -69.9140625 146.8515625 C-64.98990571 165.21508094 -64.98990571 165.21508094 -52.4296875 178.48046875 C-50.9358537 179.26346214 -49.41185368 179.99075057 -47.8671875 180.66796875 C-47.03445313 181.03535156 -46.20171875 181.40273438 -45.34375 181.78125 C-40.13276353 183.1103443 -35.03660226 183.03664791 -29.6796875 183.04296875 C-28.60654297 183.06746094 -27.53339844 183.09195313 -26.42773438 183.1171875 C-16.36371799 183.15371751 -7.50545289 180.78526348 0.4140625 174.375 C6.52253089 168.30818026 9.42018105 161.00263633 9.5703125 152.48046875 C9.5840374 143.11322191 6.22370718 136.616583 0.1328125 129.66796875 C-1.74935177 128.13888404 -3.69569413 126.68739073 -5.6796875 125.29296875 C-6.27515381 124.8743457 -6.87062012 124.45572266 -7.48413086 124.02441406 C-18.0644559 116.66441701 -28.97747306 109.77601936 -39.79492188 102.77246094 C-74.75844956 80.07829916 -74.75844956 80.07829916 -79.8671875 57.66796875 C-81.57581903 43.38564568 -78.77899201 30.56435079 -69.89453125 19.12890625 C-64.85151785 13.24094352 -59.46686242 8.71432681 -52.8671875 4.66796875 C-52.24585938 4.26835938 -51.62453125 3.86875 -50.984375 3.45703125 C-36.17852687 -5.06754798 -15.95385104 -3.73425305 0 0 Z " fill="#FDFDFD" transform="translate(420.8671875,123.33203125)"/>
<path d="M0 0 C1.18980469 -0.00386719 2.37960937 -0.00773437 3.60546875 -0.01171875 C21.92475113 0.00830232 21.92475113 0.00830232 30.7109375 2.17578125 C35.73308475 3.39454028 40.60438528 3.38293709 45.75 3.3125 C46.65234375 3.31185547 47.5546875 3.31121094 48.484375 3.31054688 C53.46421041 3.27788032 58.21610718 2.96556384 63.125 2.125 C63.14481934 2.77758789 63.16463867 3.43017578 63.18505859 4.10253906 C63.64206167 18.51959728 64.47572771 32.7939447 66.125 47.125 C60.375 50.125 60.375 50.125 58.125 50.125 C57.70089844 49.2071875 57.27679687 48.289375 56.83984375 47.34375 C50.01217073 32.90286718 41.33383574 23.57257796 25.875 17.96875 C5.62347953 11.75521531 -14.73349342 11.95028626 -34.0625 20.8125 C-51.40211928 30.05875975 -62.46812558 45.61005236 -68.16015625 64.1328125 C-76.30726854 92.69139445 -73.8110665 125.94042844 -60.1796875 152.41796875 C-50.74560785 167.97323031 -36.69541188 180.66289469 -18.8203125 185.265625 C-12.69612827 186.53074491 -6.54445795 186.50839151 -0.3125 186.5 C1.54725464 186.49758301 1.54725464 186.49758301 3.44458008 186.49511719 C12.926168 186.36868775 21.18965116 185.34484515 30.125 182.125 C31.39730469 181.67447266 31.39730469 181.67447266 32.6953125 181.21484375 C49.6814252 174.37896912 58.29155245 162.93773056 66.125 147.125 C72 149 72 149 73.125 150.125 C73.07421875 152.12890625 73.07421875 152.12890625 72.8125 154.6875 C72.73386719 155.51378906 72.65523437 156.34007812 72.57421875 157.19140625 C72.12268933 160.14008968 71.39558619 162.95849754 70.64868164 165.84350586 C69.64360683 170.22225835 69.10136433 174.67613122 68.5 179.125 C68.3659375 180.09050781 68.231875 181.05601562 68.09375 182.05078125 C67.76695846 184.40834876 67.44412927 186.76638524 67.125 189.125 C26.13501387 202.62134338 -17.63155133 209.69797637 -57.859375 189.63671875 C-66.00527791 185.2155616 -72.35958434 179.61261161 -78.875 173.125 C-79.60589844 172.42890625 -80.33679687 171.7328125 -81.08984375 171.015625 C-98.58528647 153.13909343 -103.27218215 126.96616073 -103.125 103 C-103.13273437 101.73285156 -103.14046875 100.46570313 -103.1484375 99.16015625 C-103.13220345 91.27852702 -102.4398148 83.84621898 -100.875 76.125 C-100.68381592 75.13628906 -100.49263184 74.14757812 -100.2956543 73.12890625 C-95.47998064 49.3758922 -79.33059911 28.7679545 -59.5703125 15.4453125 C-50.99847516 9.91962783 -41.79651066 6.19822486 -32.0625 3.25 C-31.39371826 3.04656982 -30.72493652 2.84313965 -30.03588867 2.63354492 C-20.18917321 -0.14930116 -10.16037989 -0.0328107 0 0 Z " fill="#FCFCFD" transform="translate(1225.875,120.875)"/>
<path d="M0 0 C9.25528173 7.96504729 14.96112502 17.91821947 16.4765625 30.0703125 C16.58097656 31.95363281 16.58097656 31.95363281 16.6875 33.875 C16.78289062 35.11507812 16.87828125 36.35515625 16.9765625 37.6328125 C16.40290532 42.67381277 13.51922659 45.96513589 10.14123535 49.57510376 C3.93293601 53.96080287 -3.56344377 53.20324781 -10.87890625 53.1640625 C-12.61489249 53.19032657 -14.35081781 53.22094437 -16.08665466 53.25570679 C-20.62920645 53.33509468 -25.17015435 53.3557659 -29.71331787 53.36376953 C-34.3594989 53.38249387 -39.00474906 53.45735744 -43.65039062 53.52734375 C-52.74605078 53.65617225 -61.8410072 53.72291557 -70.9375 53.75 C-70.80061444 56.28681993 -70.6578294 58.82308322 -70.51171875 61.359375 C-70.47397339 62.07013184 -70.43622803 62.78088867 -70.39733887 63.51318359 C-69.63331913 76.49779214 -65.79829207 90.27535708 -55.86328125 99.28515625 C-44.18850771 108.16556209 -31.08558685 107.88076142 -16.9375 106.75 C-9.47189338 105.53811728 -2.09893824 103.45813856 4.8984375 100.5859375 C7.0625 99.75 7.0625 99.75 10.0625 99.75 C11.32958771 102.35871 12.07845638 104.25455448 11.984375 107.17578125 C9.81258275 113.24023502 0.53657541 116.554453 -5.08203125 119.26953125 C-8.0043528 120.53727494 -10.94042274 121.67203216 -13.9375 122.75 C-14.75992187 123.0696875 -15.58234375 123.389375 -16.4296875 123.71875 C-31.57803111 128.81538897 -49.5072951 126.51620711 -64.01953125 120.46484375 C-78.87334045 113.00677731 -87.86466682 100.82311782 -93.14575195 85.36962891 C-99.00830638 65.43407307 -95.50094005 41.22712461 -86.1875 22.9375 C-82.85379011 17.17849475 -78.61865391 12.44775375 -73.9375 7.75 C-73.39609375 7.18539062 -72.8546875 6.62078125 -72.296875 6.0390625 C-54.14484345 -11.28787671 -20.41176879 -14.64322543 0 0 Z " fill="#FCFCFC" transform="translate(1740.9375,196.25)"/>
<path d="M0 0 C9.47316101 7.95604398 15.03976071 17.25519806 16.57421875 29.59375 C16.62320312 30.90730469 16.6721875 32.22085938 16.72265625 33.57421875 C16.83480469 35.53294922 16.83480469 35.53294922 16.94921875 37.53125 C16.36708933 42.42149135 14.36053741 46.0607914 11.14892578 49.75219727 C4.22916249 54.30945216 -4.79327458 52.99135365 -12.77734375 52.82421875 C-14.78734497 52.81831365 -16.79736795 52.81762553 -18.80737305 52.82202148 C-22.87343683 52.82721691 -26.93846913 52.81021833 -31.00439453 52.77734375 C-38.83827596 52.73257597 -46.65892859 52.97384155 -54.48712158 53.24728394 C-58.00670692 53.36883349 -61.52678606 53.47221351 -65.046875 53.578125 C-66.99870603 53.63906358 -68.95053252 53.70014929 -70.90234375 53.76171875 C-70.61798877 56.76257129 -70.32507497 59.76218781 -70.02734375 62.76171875 C-69.94871094 63.60089844 -69.87007812 64.44007813 -69.7890625 65.3046875 C-68.38117034 79.27530966 -64.73009422 91.236682 -53.90234375 100.76171875 C-50.69409467 102.85001503 -47.46961364 104.3887695 -43.90234375 105.76171875 C-42.80921875 106.19484375 -41.71609375 106.62796875 -40.58984375 107.07421875 C-25.35835937 109.91398702 -10.60116347 106.40030212 3.578125 101.00390625 C7.09765625 99.76171875 7.09765625 99.76171875 10.09765625 99.76171875 C11.95802247 102.90108674 12.5465107 105.12101042 12.09765625 108.76171875 C1.69669362 119.87239413 -17.33529785 125.12224474 -31.83984375 126 C-49.49136886 126.47893407 -65.65314343 122.44489334 -78.83984375 110.01171875 C-92.71510514 94.87506996 -95.64883587 75.68679343 -95.00292969 55.99462891 C-94.17047976 37.51504868 -86.80857342 19.46516355 -73.234375 6.640625 C-53.41118556 -9.33082244 -21.86757585 -15.75576699 0 0 Z " fill="#FDFDFD" transform="translate(1871.90234375,196.23828125)"/>
<path d="M0 0 C10.3439762 7.57384016 15.73146558 19.62914322 18 32 C20.43454826 51.09176126 20.73094616 70.1823275 9.7109375 86.82421875 C3.43097962 94.81037523 -4.73207881 100.91942037 -15.03613281 102.26611328 C-26.842266 103.22459402 -35.89757908 101.63434656 -45.25 94 C-56.98773037 82.77821383 -59.95737068 66.51202659 -60.34326172 50.93066406 C-60.46521549 39.66964032 -59.42825797 30.3717554 -55 20 C-54.56558594 18.97519531 -54.13117188 17.95039063 -53.68359375 16.89453125 C-49.54667876 8.34962136 -43.01756883 1.61790832 -34.4375 -2.5625 C-23.8032647 -6.19656151 -9.83132571 -5.35067727 0 0 Z " fill="#6B7280" transform="translate(1405,206)"/>
<path d="M0 0 C9.29042385 8.35940057 12.54321957 21.11312107 13.21484375 33.17578125 C13.78266049 50.2682238 10.74444997 68.18190111 -0.85546875 81.46484375 C-5.12527366 85.99317201 -9.23607584 89.30918184 -15.10546875 91.4609375 C-16.56533203 91.99654297 -16.56533203 91.99654297 -18.0546875 92.54296875 C-23.53877881 94.06004681 -29.21021746 93.78951168 -34.85546875 93.7734375 C-35.97179687 93.78955078 -37.088125 93.80566406 -38.23828125 93.82226562 C-45.58185695 93.8265451 -52.17736237 92.98636008 -59.10546875 90.4609375 C-60.91662499 88.64978126 -60.22542251 86.16216249 -60.22988892 83.75192261 C-60.22629364 82.93265289 -60.22269836 82.11338318 -60.21899414 81.26928711 C-60.21914017 80.41082687 -60.21928619 79.55236664 -60.21943665 78.66789246 C-60.21873722 75.81633012 -60.21094345 72.96483225 -60.203125 70.11328125 C-60.20126093 68.14172908 -60.19983697 66.17017645 -60.19883728 64.19862366 C-60.19501126 58.99867483 -60.18518027 53.79875375 -60.1741333 48.59881592 C-60.16392097 43.29700089 -60.15934004 37.9951814 -60.15429688 32.69335938 C-60.14355808 22.28253987 -60.12648066 11.87174099 -60.10546875 1.4609375 C-58.35503415 0.64817013 -56.60271364 -0.16053641 -54.84960938 -0.9675293 C-53.87399048 -1.41831345 -52.89837158 -1.8690976 -51.89318848 -2.33354187 C-36.51468093 -8.98381877 -13.8461026 -10.12126981 0 0 Z " fill="#6B7280" transform="translate(895.10546875,212.5390625)"/>
<path d="M0 0 C6.23392237 1.24678447 9.32456735 6.68678052 12.83203125 11.66796875 C14.93852109 15.03984118 16.18755916 17.7229016 15.4375 21.6875 C14.47064189 23.0450578 13.4736232 24.38203974 12.4375 25.6875 C10.49963915 25.20979477 8.56222326 24.73028429 6.625 24.25 C5.54605469 23.98316406 4.46710938 23.71632812 3.35546875 23.44140625 C1.3634157 22.92672588 -0.61061524 22.33812825 -2.5625 21.6875 C-12.86041941 21.01709116 -23.19270746 20.34793031 -31.54296875 27.34765625 C-44.9523412 41.27167412 -44.93883517 61.60121993 -45.5625 79.6875 C-33.3525 79.6875 -21.1425 79.6875 -8.5625 79.6875 C-7.5625 83.6875 -7.5625 83.6875 -8.66992188 86.24365234 C-11.67068811 90.52360145 -13.80998095 93.27939936 -19.0390625 94.49707031 C-23.09232438 94.67209753 -27.0191977 94.56413812 -31.0625 94.3125 C-32.47119542 94.26225891 -33.8800639 94.21664548 -35.2890625 94.17578125 C-38.71799499 94.05835206 -42.13799347 93.89437075 -45.5625 93.6875 C-45.45062544 103.00018637 -45.32491623 112.31265747 -45.1875 121.625 C-45.17733479 122.31441555 -45.16716957 123.0038311 -45.15669632 123.71413803 C-44.79788526 147.73525002 -44.00135598 171.70447263 -42.5625 195.6875 C-40.85050734 196.34600243 -39.13493812 196.99521001 -37.41796875 197.640625 C-36.46301514 198.00317383 -35.50806152 198.36572266 -34.52416992 198.73925781 C-30.18891633 200.12728229 -26.09688915 200.42463686 -21.5625 200.6875 C-21.5625 203.6575 -21.5625 206.6275 -21.5625 209.6875 C-44.0025 209.6875 -66.4425 209.6875 -89.5625 209.6875 C-89.5625 207.0475 -89.5625 204.4075 -89.5625 201.6875 C-88.52609375 201.42195312 -87.4896875 201.15640625 -86.421875 200.8828125 C-85.05202244 200.52627553 -83.68223412 200.1694917 -82.3125 199.8125 C-81.63058594 199.63847656 -80.94867187 199.46445312 -80.24609375 199.28515625 C-75.1830316 198.00618693 -75.1830316 198.00618693 -70.5625 195.6875 C-69.87623724 193.87294245 -69.87623724 193.87294245 -69.84545898 191.73803711 C-69.79009979 190.92801239 -69.7347406 190.11798767 -69.67770386 189.28341675 C-69.63968658 188.42676422 -69.60166931 187.57011169 -69.5625 186.6875 C-69.51247833 185.86331573 -69.46245667 185.03913147 -69.41091919 184.18997192 C-69.25533891 181.42019782 -69.14028808 178.65105017 -69.03515625 175.87890625 C-68.99383072 174.81434708 -68.95250519 173.7497879 -68.90992737 172.65296936 C-68.37365579 157.76924377 -68.21855445 142.87642416 -68.03027344 127.98510742 C-67.97900306 123.98808539 -67.92388217 119.99111636 -67.86914062 115.99414062 C-67.7632805 108.22530504 -67.66185173 100.45642204 -67.5625 92.6875 C-74.1625 92.6875 -80.7625 92.6875 -87.5625 92.6875 C-86.48866459 86.24448752 -85.08096318 83.92008627 -81.5625 78.6875 C-74.6325 79.1825 -74.6325 79.1825 -67.5625 79.6875 C-67.60375 78.305625 -67.645 76.92375 -67.6875 75.5 C-67.60238969 55.3572276 -59.74575086 36.92091667 -45.6328125 22.57421875 C-32.7222685 10.10181539 -17.45080703 3.3676996 0 0 Z " fill="#FCFCFC" transform="translate(1556.5625,110.3125)"/>
<path d="M0 0 C5.35359986 3.91726819 10.82727927 11.24840524 12.82421875 17.63671875 C13 20 13 20 11.0625 22.8125 C10.381875 23.534375 9.70125 24.25625 9 25 C8.00419922 24.69255859 8.00419922 24.69255859 6.98828125 24.37890625 C6.10527344 24.10949219 5.22226563 23.84007812 4.3125 23.5625 C3.44238281 23.29566406 2.57226562 23.02882812 1.67578125 22.75390625 C-7.91788956 20.05087199 -20.49706167 18.75387986 -29.75 23.0625 C-39.76302461 29.20450994 -43.39917773 38.95312742 -46.32006836 49.85693359 C-47.52284163 55.41689882 -47.83996645 61.02056051 -48.1875 66.6875 C-48.455625 70.750625 -48.72375 74.81375 -49 79 C-36.46 79 -23.92 79 -11 79 C-11 85.0659901 -12.2119081 86.87413917 -16.24609375 91.16357422 C-21.74606874 94.83119939 -28.21169428 93.63476831 -34.5 93.0625 C-35.90857452 92.96899477 -37.31743962 92.8797635 -38.7265625 92.79492188 C-42.15579398 92.57919138 -45.57747508 92.30567346 -49 92 C-48.55426358 133.48310108 -48.55426358 133.48310108 -47.0625 174.9375 C-47.0249762 175.74261017 -46.98745239 176.54772034 -46.9487915 177.37722778 C-46.84210542 179.61546232 -46.72270795 181.85256875 -46.59765625 184.08984375 C-46.53070557 185.31566162 -46.46375488 186.54147949 -46.39477539 187.80444336 C-46.01122175 190.90916421 -45.43648681 193.22802689 -44 196 C-41.6649856 197.2207508 -41.6649856 197.2207508 -38.875 197.75 C-37.89660156 197.97816406 -36.91820312 198.20632813 -35.91015625 198.44140625 C-32.2720865 199.13972031 -28.68804607 199.65207113 -25 200 C-25 202.97 -25 205.94 -25 209 C-47.44 209 -69.88 209 -93 209 C-92.505 205.04 -92.505 205.04 -92 201 C-89.58343624 200.35377959 -87.16675354 199.70800996 -84.75 199.0625 C-84.06808594 198.88009766 -83.38617187 198.69769531 -82.68359375 198.50976562 C-79.4612444 197.64942963 -76.23707688 196.80302004 -73 196 C-72.13492174 183.50458759 -71.79969297 171.05023327 -71.68359375 158.52734375 C-71.66295707 156.62349568 -71.64195922 154.71965149 -71.62062073 152.81581116 C-71.56609162 147.86602985 -71.516385 142.91621212 -71.46777344 137.96636963 C-71.4170449 132.89095923 -71.3616302 127.81560008 -71.30664062 122.74023438 C-71.19990843 112.82686555 -71.09871869 102.91345187 -71 93 C-77.27 93 -83.54 93 -90 93 C-91.41276992 85.93615039 -88.85534459 83.90103764 -85 78 C-78.07 78.495 -78.07 78.495 -71 79 C-71.0825 77.55625 -71.165 76.1125 -71.25 74.625 C-71.17477719 55.14229226 -63.13591348 36.51754598 -49.60253906 22.55859375 C-37.86525236 11.10986493 -17.07252431 -2.74379855 0 0 Z " fill="#FCFCFC" transform="translate(1650,111)"/>
<path d="M0 0 C0.75796875 0.4846875 1.5159375 0.969375 2.296875 1.46875 C4.90013312 3.34309584 6.63021937 4.80551124 7.59375 7.91796875 C8.10829955 14.98016136 4.85885818 21.7011387 2 28 C1 29 1 29 -0.84765625 29.09765625 C-2.8984375 29.06510417 -4.94921875 29.03255208 -7 29 C-7.45439453 28.02160156 -7.45439453 28.02160156 -7.91796875 27.0234375 C-12.53297114 17.39583251 -17.9161363 10.18877625 -28.125 6.1875 C-36.43403539 3.76109238 -44.39225774 3.83738988 -52.3125 7.4375 C-62.84625396 13.37142208 -68.65605794 22.49170034 -72.19140625 33.81640625 C-77.18312346 51.91164608 -76.97843101 72.69618361 -67.71875 89.4453125 C-62.26894324 97.54570709 -54.27822901 101.59461515 -45.16796875 104.60546875 C-29.91395767 107.38142392 -13.1682328 103.93947458 0.4296875 96.734375 C4 95 4 95 7 96 C7.73046875 98.06640625 7.73046875 98.06640625 8.1875 100.5625 C8.34605469 101.38878906 8.50460937 102.21507812 8.66796875 103.06640625 C8.83232422 104.02353516 8.83232422 104.02353516 9 105 C-11.06129946 117.74863224 -31.79298318 126.96867587 -56.12109375 122.31640625 C-70.0553688 118.87918999 -82.10425985 112.44236264 -90.19335938 100.19287109 C-101.02025163 82.06574641 -104.44302552 60.24027859 -99.5 39.625 C-94.15282999 21.29452598 -84.27113486 6.41352631 -68 -4 C-65.06520435 -5.5795842 -62.13258724 -6.87000861 -59 -8 C-57.989375 -8.391875 -56.97875 -8.78375 -55.9375 -9.1875 C-36.78059321 -14.4862189 -16.2931385 -11.12226221 0 0 Z " fill="#FCFDFD" transform="translate(586,199)"/>
<path d="M0 0 C1.98 0.66 3.96 1.32 6 2 C6 15.53 6 29.06 6 43 C19.86 43 33.72 43 48 43 C49 47 49 47 47.74633789 49.55615234 C44.4266373 53.78066074 41.55037584 57.05285625 36.06591797 57.80957031 C31.51105631 58.10630776 26.98920186 57.87486038 22.4375 57.625 C20.84063484 57.57475863 19.24361701 57.52914535 17.64648438 57.48828125 C13.76050801 57.37886644 9.88195977 57.20684268 6 57 C6.06126838 68.61380323 6.13841619 80.2273828 6.23571491 91.84094334 C6.28040065 97.23387209 6.31966089 102.62672561 6.34643555 108.01977539 C6.37248622 113.22649963 6.41290149 118.43293408 6.46318626 123.63947868 C6.47984298 125.62370124 6.49136469 127.60797391 6.49761391 129.59225655 C6.50726789 132.3763463 6.53534293 135.15969667 6.56762695 137.94360352 C6.56619186 138.76000305 6.56475677 139.57640259 6.5632782 140.4175415 C6.6489753 145.6592097 7.54195421 149.34416991 10 154 C15.27286181 158.52224352 22.28361988 157.74772543 28.85595703 157.28515625 C33.60170121 156.65397552 37.8990053 154.90018006 42.3046875 153.09375 C45 152 45 152 47 152 C50 158.625 50 158.625 50 162 C37.3384948 171.62730666 21.75639355 176.29031597 6 175 C-1.0606244 173.41385203 -7.37021825 170.68023759 -12 165 C-17.95316985 154.99279694 -16.50347039 142.66787209 -16.390625 131.48828125 C-16.383154 129.30682395 -16.37746513 127.12535988 -16.37347412 124.94389343 C-16.35828553 119.23427425 -16.31906253 113.52506952 -16.2746582 107.81561279 C-16.23355874 101.97674158 -16.21543188 96.13780265 -16.1953125 90.29882812 C-16.15256126 78.8656751 -16.08226728 67.43293704 -16 56 C-22.27 56 -28.54 56 -35 56 C-33.92616459 49.55698752 -32.51846318 47.23258627 -29 42 C-25.04 42.33 -21.08 42.66 -17 43 C-17.165 41.13214844 -17.33 39.26429688 -17.5 37.33984375 C-17.66886453 34.87254527 -17.83540978 32.40508729 -18 29.9375 C-18.11472656 28.70837891 -18.22945312 27.47925781 -18.34765625 26.21289062 C-18.87926151 17.24809283 -18.87926151 17.24809283 -16.40820312 13.74047852 C-14.36329164 11.95456658 -12.27584978 10.47590946 -10 9 C-8.16273899 7.35855233 -6.32873493 5.71344126 -4.5 4.0625 C-3.6440625 3.29035156 -2.788125 2.51820313 -1.90625 1.72265625 C-1.2771875 1.15417969 -0.648125 0.58570313 0 0 Z " fill="#FCFCFC" transform="translate(986,147)"/>
<path d="M0 0 C4.20663288 4.28600331 8.19969104 8.91972723 10.15625 14.6875 C9.81801243 18.18614485 9.14302502 19.70733748 7.15625 22.6875 C-0.45375863 21.79966566 -0.45375863 21.79966566 -2.609375 21.1796875 C-12.30098066 19.04482332 -22.71315492 19.69914814 -31.31640625 24.7265625 C-38.62705238 30.39881035 -41.89138919 37.85246385 -43.84375 46.6875 C-44.24069125 50.93822251 -44.24182508 55.15507435 -44.20703125 59.421875 C-44.20752975 60.61750061 -44.20802826 61.81312622 -44.20854187 63.04498291 C-44.2062125 65.56288319 -44.19655162 68.0807863 -44.17993164 70.59863281 C-44.1564053 74.41232614 -44.15937232 78.22531524 -44.16601562 82.0390625 C-44.82071417 99.58477513 -44.82071417 99.58477513 -41.84375 116.6875 C-36.57365839 121.72464785 -28.86993633 121.91616389 -21.9453125 122.44140625 C-19.84375 122.6875 -19.84375 122.6875 -17.84375 123.6875 C-18.33875 127.6475 -18.33875 127.6475 -18.84375 131.6875 C-41.61375 131.6875 -64.38375 131.6875 -87.84375 131.6875 C-87.84375 129.0475 -87.84375 126.4075 -87.84375 123.6875 C-85.42718624 123.04127959 -83.01050354 122.39550996 -80.59375 121.75 C-79.57087891 121.47639648 -79.57087891 121.47639648 -78.52734375 121.19726562 C-75.3049944 120.33692963 -72.08082688 119.49052004 -68.84375 118.6875 C-67.4881527 108.13351549 -67.71684805 97.54292401 -67.74609375 86.92578125 C-67.74796187 84.92368098 -67.74938391 82.92158026 -67.75038147 80.91947937 C-67.75417561 75.68350941 -67.76397896 70.44756776 -67.77508545 65.21160889 C-67.78536672 59.85526919 -67.7898934 54.49892487 -67.79492188 49.14257812 C-67.80560439 38.65753973 -67.82264298 28.17252223 -67.84375 17.6875 C-68.53145477 17.55300446 -69.21915955 17.41850891 -69.92770386 17.27993774 C-71.28002609 17.01302628 -71.28002609 17.01302628 -72.65966797 16.74072266 C-73.55362274 16.56497711 -74.44757751 16.38923157 -75.36862183 16.2081604 C-77.97578752 15.65972499 -80.45817476 14.95334928 -82.96875 14.0625 C-83.71382812 13.80210937 -84.45890625 13.54171875 -85.2265625 13.2734375 C-85.76023437 13.08007812 -86.29390625 12.88671875 -86.84375 12.6875 C-86.84375 10.0475 -86.84375 7.4075 -86.84375 4.6875 C-85.80988159 4.56689209 -85.80988159 4.56689209 -84.75512695 4.44384766 C-81.55521264 4.06914793 -78.35570514 3.69110031 -75.15625 3.3125 C-74.01260986 3.1781958 -72.86896973 3.0438916 -71.69067383 2.90551758 C-64.81059676 2.08495793 -58.00220679 1.14728263 -51.19921875 -0.17578125 C-48.84375 -0.3125 -48.84375 -0.3125 -44.84375 1.6875 C-44.51375 8.9475 -44.18375 16.2075 -43.84375 23.6875 C-41.86375 21.0475 -39.88375 18.4075 -37.84375 15.6875 C-30.37452038 7.68475397 -11.41445584 -8.12554483 0 0 Z " fill="#FCFCFD" transform="translate(696.84375,188.3125)"/>
<path d="M0 0 C0.00808685 1.0277655 0.01617371 2.05553101 0.02450562 3.11444092 C0.10295611 12.93619957 0.19091664 22.75783622 0.28752708 32.57943344 C0.33687367 37.62535771 0.3831927 42.67126697 0.421875 47.71728516 C0.60694626 75.6934899 0.60694626 75.6934899 1.7890625 103.640625 C1.84838959 104.77707458 1.90771667 105.91352417 1.96884155 107.08441162 C2.04309357 108.1035968 2.11734558 109.12278198 2.19384766 110.17285156 C2.25271149 111.04218323 2.31157532 111.91151489 2.3722229 112.80718994 C3.2065583 115.72150311 4.42784586 116.48146723 7 118 C12.30182013 119.87123063 17.43726486 120.48651676 23 121 C22.67 123.97 22.34 126.94 22 130 C0.22 130 -21.56 130 -44 130 C-44 122 -44 122 -43 121 C-41.32015302 120.64867875 -39.63040354 120.34426249 -37.9375 120.0625 C-33.21919745 119.2432647 -28.62878258 118.22269729 -24 117 C-23.24464857 110.47941305 -22.8575255 104.07331157 -22.88647461 97.51123047 C-22.88632858 96.62219528 -22.88618256 95.7331601 -22.8860321 94.81718445 C-22.88672143 91.91715948 -22.89446731 89.01720106 -22.90234375 86.1171875 C-22.90421142 84.09123774 -22.90563367 82.06528753 -22.90663147 80.03933716 C-22.91042918 74.73594898 -22.92023571 69.43258868 -22.93133545 64.12921143 C-22.94160892 58.70593645 -22.94614175 53.28265692 -22.95117188 47.859375 C-22.96186071 37.23957116 -22.97890374 26.61978791 -23 16 C-23.68770477 15.86550446 -24.37540955 15.73100891 -25.08395386 15.59243774 C-26.43627609 15.32552628 -26.43627609 15.32552628 -27.81591797 15.05322266 C-28.70987274 14.87747711 -29.60382751 14.70173157 -30.52487183 14.5206604 C-33.13203752 13.97222499 -35.61442476 13.26584928 -38.125 12.375 C-38.87007812 12.11460937 -39.61515625 11.85421875 -40.3828125 11.5859375 C-40.91648437 11.39257812 -41.45015625 11.19921875 -42 11 C-42 8.36 -42 5.72 -42 3 C-40.94256592 2.87939209 -40.94256592 2.87939209 -39.86376953 2.75634766 C-36.61700181 2.38354108 -33.37101417 2.00430952 -30.125 1.625 C-29.01640625 1.49867188 -27.9078125 1.37234375 -26.765625 1.2421875 C-20.82296446 0.54305097 -15.03241949 -0.30423767 -9.21435547 -1.71728516 C-5.82762 -2.14968203 -3.03647116 -1.51823558 0 0 Z " fill="#FCFDFD" transform="translate(760,190)"/>
<path d="M0 0 C5.65995229 3.43941664 10.87199282 8.70746915 13.0390625 15.08203125 C13.57025474 18.05566625 13.56931543 20.91826291 13.5625 23.9375 C13.56636719 25.65839844 13.56636719 25.65839844 13.5703125 27.4140625 C13.4375 30.3125 13.4375 30.3125 12.4375 32.3125 C6.21470183 33.39628607 -0.07134229 33.62036486 -6.375 33.875 C-7.39658203 33.9174585 -8.41816406 33.95991699 -9.47070312 34.00366211 C-21.8317192 34.46710696 -34.1950929 34.40606162 -46.5625 34.3125 C-44.26956789 21.93066659 -38.58626686 10.33883385 -28.0625 3.0625 C-19.83206764 -2.32785359 -9.26102311 -4.36540593 0 0 Z " fill="#6D7482" transform="translate(1849.5625,203.6875)"/>
<path d="M0 0 C5.36470504 3.22114039 10.63980899 8.60692697 12.625 14.5625 C12.70521999 15.97074893 12.73265977 17.38247231 12.72265625 18.79296875 C12.71943359 19.59541016 12.71621094 20.39785156 12.71289062 21.22460938 C12.70032227 22.47467773 12.70032227 22.47467773 12.6875 23.75 C12.68298828 24.59498047 12.67847656 25.43996094 12.67382812 26.31054688 C12.66205403 28.39456155 12.6441189 30.47853977 12.625 32.5625 C4.30688687 33.55945032 -4.00604699 33.8784194 -12.375 34.125 C-13.05499054 34.14617889 -13.73498108 34.16735779 -14.43557739 34.18917847 C-25.08349682 34.52016859 -35.72194318 34.69401922 -46.375 34.5625 C-45.23948466 23.97315924 -39.80180941 14.17008367 -32.375 6.5625 C-23.19994821 -0.7806998 -11.51916256 -5.01530139 0 0 Z " fill="#6C7381" transform="translate(1718.375,203.4375)"/>
<path d="M0 0 C4.14206545 1.46190545 7.35675919 3.54587716 10.0859375 7.05859375 C12.01891587 11.16410764 11.61870267 15.60183099 11 20 C9.40290501 23.75317323 7.06353956 26.31940288 4 29 C-0.38331321 30.4611044 -4.42847447 30.73421471 -9 30 C-12.77425179 27.94757841 -15.22867526 25.27436262 -17.4375 21.625 C-18.52443908 16.55261761 -18.57621449 12.57700809 -16.8125 7.75 C-12.49134655 1.19376718 -7.63756134 -0.77089404 0 0 Z " fill="#FDFDFD" transform="translate(752,128)"/>
</svg>
